<svg width="11574" height="2460" viewBox="0 0 11574 2460" fill="none" xmlns="http://www.w3.org/2000/svg">
<path d="M3455 1972C3347 1972 3246.33 1954.67 3153 1920C3061 1884 2981 1833.33 2913 1768C2845 1702.67 2791.67 1626 2753 1538C2715.67 1450 2697 1353.33 2697 1248C2697 1142.67 2715.67 1046 2753 958C2791.67 870 2845 793.333 2913 728C2982.33 662.667 3063 612.667 3155 578C3247 542 3347.67 524 3457 524C3578.33 524 3687.67 545.333 3785 588C3883.67 629.333 3966.33 690.667 4033 772L3825 964C3777 909.333 3723.67 868.667 3665 842C3606.33 814 3542.33 800 3473 800C3407.67 800 3347.67 810.667 3293 832C3238.33 853.333 3191 884 3151 924C3111 964 3079.67 1011.33 3057 1066C3035.67 1120.67 3025 1181.33 3025 1248C3025 1314.67 3035.67 1375.33 3057 1430C3079.67 1484.67 3111 1532 3151 1572C3191 1612 3238.33 1642.67 3293 1664C3347.67 1685.33 3407.67 1696 3473 1696C3542.33 1696 3606.33 1682.67 3665 1656C3723.67 1628 3777 1586 3825 1530L4033 1722C3966.33 1803.33 3883.67 1865.33 3785 1908C3687.67 1950.67 3577.67 1972 3455 1972ZM4883.8 856C4969.13 856 5045.13 873.333 5111.8 908C5179.8 941.333 5233.13 993.333 5271.8 1064C5310.46 1133.33 5329.8 1222.67 5329.8 1332V1948H5017.8V1380C5017.8 1293.33 4998.46 1229.33 4959.8 1188C4922.46 1146.67 4869.13 1126 4799.8 1126C4750.46 1126 4705.8 1136.67 4665.8 1158C4627.13 1178 4596.46 1209.33 4573.8 1252C4552.46 1294.67 4541.8 1349.33 4541.8 1416V1948H4229.8V464H4541.8V1170L4471.8 1080C4510.46 1008 4565.8 952.667 4637.8 914C4709.8 875.333 4791.8 856 4883.8 856ZM6272.61 1948V1738L6252.61 1692V1316C6252.61 1249.33 6231.94 1197.33 6190.61 1160C6150.61 1122.67 6088.61 1104 6004.61 1104C5947.28 1104 5890.61 1113.33 5834.61 1132C5779.94 1149.33 5733.28 1173.33 5694.61 1204L5582.61 986C5641.28 944.667 5711.94 912.667 5794.61 890C5877.28 867.333 5961.28 856 6046.61 856C6210.61 856 6337.94 894.667 6428.61 972C6519.28 1049.33 6564.61 1170 6564.61 1334V1948H6272.61ZM5944.61 1964C5860.61 1964 5788.61 1950 5728.61 1922C5668.61 1892.67 5622.61 1853.33 5590.61 1804C5558.61 1754.67 5542.61 1699.33 5542.61 1638C5542.61 1574 5557.94 1518 5588.61 1470C5620.61 1422 5670.61 1384.67 5738.61 1358C5806.61 1330 5895.28 1316 6004.61 1316H6290.61V1498H6038.61C5965.28 1498 5914.61 1510 5886.61 1534C5859.94 1558 5846.61 1588 5846.61 1624C5846.61 1664 5861.94 1696 5892.61 1720C5924.61 1742.67 5967.94 1754 6022.61 1754C6074.61 1754 6121.28 1742 6162.61 1718C6203.94 1692.67 6233.94 1656 6252.61 1608L6300.61 1752C6277.94 1821.33 6236.61 1874 6176.61 1910C6116.61 1946 6039.28 1964 5944.61 1964ZM7286.98 1964C7160.32 1964 7061.65 1932 6990.98 1868C6920.32 1802.67 6884.98 1706 6884.98 1578V634H7196.98V1574C7196.98 1619.33 7208.98 1654.67 7232.98 1680C7256.98 1704 7289.65 1716 7330.98 1716C7380.32 1716 7422.32 1702.67 7456.98 1676L7540.98 1896C7508.98 1918.67 7470.32 1936 7424.98 1948C7380.98 1958.67 7334.98 1964 7286.98 1964ZM6718.98 1136V896H7464.98V1136H6718.98ZM7554.12 1948L8178.13 548H8498.13L9124.13 1948H8784.13L8272.13 712H8400.13L7886.13 1948H7554.12ZM7866.12 1648L7952.13 1402H8672.13L8760.13 1648H7866.12ZM9699.61 1964C9598.28 1964 9506.94 1941.33 9425.61 1896C9344.28 1849.33 9279.61 1784.67 9231.61 1702C9184.94 1619.33 9161.61 1522 9161.61 1410C9161.61 1296.67 9184.94 1198.67 9231.61 1116C9279.61 1033.33 9344.28 969.333 9425.61 924C9506.94 878.667 9598.28 856 9699.61 856C9790.28 856 9869.61 876 9937.61 916C10005.6 956 10058.3 1016.67 10095.6 1098C10132.9 1179.33 10151.6 1283.33 10151.6 1410C10151.6 1535.33 10133.6 1639.33 10097.6 1722C10061.6 1803.33 10009.6 1864 9941.61 1904C9874.94 1944 9794.28 1964 9699.61 1964ZM9753.61 1708C9804.28 1708 9850.28 1696 9891.61 1672C9932.94 1648 9965.61 1614 9989.61 1570C10014.9 1524.67 10027.6 1471.33 10027.6 1410C10027.6 1347.33 10014.9 1294 9989.61 1250C9965.61 1206 9932.94 1172 9891.61 1148C9850.28 1124 9804.28 1112 9753.61 1112C9701.61 1112 9654.94 1124 9613.61 1148C9572.28 1172 9538.94 1206 9513.61 1250C9489.61 1294 9477.61 1347.33 9477.61 1410C9477.61 1471.33 9489.61 1524.67 9513.61 1570C9538.94 1614 9572.28 1648 9613.61 1672C9654.94 1696 9701.61 1708 9753.61 1708ZM10035.6 1948V1728L10041.6 1408L10021.6 1090V464H10333.6V1948H10035.6ZM10984.4 1964C10892.4 1964 10803.7 1953.33 10718.4 1932C10634.4 1909.33 10567.7 1881.33 10518.4 1848L10622.4 1624C10671.7 1654.67 10729.7 1680 10796.4 1700C10864.4 1718.67 10931 1728 10996.4 1728C11068.4 1728 11119 1719.33 11148.4 1702C11179 1684.67 11194.4 1660.67 11194.4 1630C11194.4 1604.67 11182.4 1586 11158.4 1574C11135.7 1560.67 11105 1550.67 11066.4 1544C11027.7 1537.33 10985 1530.67 10938.4 1524C10893 1517.33 10847 1508.67 10800.4 1498C10753.7 1486 10711 1468.67 10672.4 1446C10633.7 1423.33 10602.4 1392.67 10578.4 1354C10555.7 1315.33 10544.4 1265.33 10544.4 1204C10544.4 1136 10563.7 1076 10602.4 1024C10642.4 972 10699.7 931.333 10774.4 902C10849 871.333 10938.4 856 11042.4 856C11115.7 856 11190.4 864 11266.4 880C11342.4 896 11405.7 919.333 11456.4 950L11352.4 1172C11300.4 1141.33 11247.7 1120.67 11194.4 1110C11142.4 1098 11091.7 1092 11042.4 1092C10973 1092 10922.4 1101.33 10890.4 1120C10858.4 1138.67 10842.4 1162.67 10842.4 1192C10842.4 1218.67 10853.7 1238.67 10876.4 1252C10900.4 1265.33 10931.7 1276 10970.4 1284C11009 1292 11051 1299.33 11096.4 1306C11143 1311.33 11189.7 1320 11236.4 1332C11283 1344 11325 1361.33 11362.4 1384C11401 1405.33 11432.4 1435.33 11456.4 1474C11480.4 1511.33 11492.4 1560.67 11492.4 1622C11492.4 1688.67 11472.4 1748 11432.4 1800C11392.4 1850.67 11334.4 1890.67 11258.4 1920C11183.7 1949.33 11092.4 1964 10984.4 1964Z" fill="url(#paint0_radial_2029_19)"/>
<path d="M836 1960C728 1960 627.333 1942.67 534 1908C442 1872 362 1821.33 294 1756C226 1690.67 172.667 1614 134 1526C96.6667 1438 78 1341.33 78 1236C78 1130.67 96.6667 1034 134 946C172.667 858 226 781.333 294 716C363.333 650.667 444 600.667 536 566C628 530 728.667 512 838 512C959.333 512 1068.67 533.333 1166 576C1264.67 617.333 1347.33 678.667 1414 760L1206 952C1158 897.333 1104.67 856.667 1046 830C987.333 802 923.333 788 854 788C788.667 788 728.667 798.667 674 820C619.333 841.333 572 872 532 912C492 952 460.667 999.333 438 1054C416.667 1108.67 406 1169.33 406 1236C406 1302.67 416.667 1363.33 438 1418C460.667 1472.67 492 1520 532 1560C572 1600 619.333 1630.67 674 1652C728.667 1673.33 788.667 1684 854 1684C923.333 1684 987.333 1670.67 1046 1644C1104.67 1616 1158 1574 1206 1518L1414 1710C1347.33 1791.33 1264.67 1853.33 1166 1896C1068.67 1938.67 958.667 1960 836 1960Z" fill="url(#paint1_linear_2029_19)"/>
<path d="M1170.27 1219.82L2121.89 776.075" stroke="#F59E0B" stroke-width="280"/>
<line x1="1236" y1="1378.62" x2="1236.34" y2="1092.85" stroke="#F59E0B" stroke-width="250"/>
<line x1="1170.17" y1="1252.12" x2="2121.79" y2="1695.87" stroke="#F59E0B" stroke-width="280"/>
<defs>
<radialGradient id="paint0_radial_2029_19" cx="0" cy="0" r="1" gradientUnits="userSpaceOnUse" gradientTransform="translate(7096.5 1236) scale(4477.5 4477.5)">
<stop stop-color="#F59E0B"/>
<stop offset="1" stop-color="#D97706"/>
</radialGradient>
<linearGradient id="paint1_linear_2029_19" x1="0" y1="1224" x2="1612" y2="1224" gradientUnits="userSpaceOnUse">
<stop stop-color="#F59E0B"/>
<stop offset="1" stop-color="#D97706"/>
</linearGradient>
</defs>
</svg>
